<?xml version="1.0" encoding="UTF-8"?>
<svg id="Layer_1" data-name="Layer 1" xmlns="http://www.w3.org/2000/svg" xmlns:xlink="http://www.w3.org/1999/xlink" viewBox="0 0 1448 260">
  <defs>
    <style>
      .cls-1 {
        fill: url(#linear-gradient-2);
      }

      .cls-2 {
        fill: #0151fc;
      }

      .cls-3 {
        fill: url(#linear-gradient-4);
      }

      .cls-4 {
        fill: url(#linear-gradient-3);
      }

      .cls-5 {
        fill: url(#linear-gradient);
      }

      .cls-6 {
        fill: #000d2b;
      }
    </style>
    <linearGradient id="linear-gradient" x1="165.41" y1="96.75" x2="489.98" y2="96.75" gradientUnits="userSpaceOnUse">
      <stop offset="0" stop-color="#fff"/>
      <stop offset="0" stop-color="#f9f9fa"/>
      <stop offset=".05" stop-color="#cacdd3"/>
      <stop offset=".1" stop-color="#9fa4af"/>
      <stop offset=".15" stop-color="#797f8f"/>
      <stop offset=".2" stop-color="#586074"/>
      <stop offset=".26" stop-color="#3c465d"/>
      <stop offset=".33" stop-color="#26314a"/>
      <stop offset=".41" stop-color="#14203c"/>
      <stop offset=".51" stop-color="#081532"/>
      <stop offset=".65" stop-color="#010e2c"/>
      <stop offset="1" stop-color="#000d2b"/>
    </linearGradient>
    <linearGradient id="linear-gradient-2" x1="67.5" y1="205.97" x2="208.66" y2="205.97" gradientUnits="userSpaceOnUse">
      <stop offset="0" stop-color="#fff"/>
      <stop offset=".88" stop-color="#0151fc"/>
    </linearGradient>
    <linearGradient id="linear-gradient-3" x1="78.5" y1="176.55" x2="219.66" y2="176.55" xlink:href="#linear-gradient-2"/>
    <linearGradient id="linear-gradient-4" x1="90.83" y1="147.13" x2="232" y2="147.13" xlink:href="#linear-gradient-2"/>
  </defs>
  <g>
    <g>
      <path class="cls-5" d="M316.45,94.03l-33.88,73.99-46.6-.31,46.96-104.9-117.52-.22,46.77-37.08,277.8.04-36.56,37.09-114.16.03c-5.59-.47-10.05,2.57-12.22,7.45l-10.6,23.93Z"/>
      <path class="cls-2" d="M389.66,213.76h-173.56s13.96-32.31,13.96-32.31h155.01c4.45,0,8.96-1.43,10.46-5.85l4-11.77c.36-1.06.09-4.27-.91-4.77l-4.41-2.18h-55.02c-7.6-.46-15.31-2.76-19.84-9-4.87-6.71-4.99-15.83-2.21-23.54l7.14-19.76c6.16-17.04,19.44-28.53,38.09-29.87l118.63.13-32.67,30.87-82.16.04c-4.03,0-8.47,1.4-9.83,5.46l-3.74,11.16c-.86,2.56,2.04,5.36,4.62,5.37l58.84.26c6.66.03,13.96,3.4,17.76,8.41,5.23,6.9,5.82,16.2,2.95,23.99l-9.99,27.17c-5.7,15.51-19.92,25.22-37.13,26.19Z"/>
    </g>
    <g>
      <path class="cls-6" d="M858.42,103.47c10.34.04,18.37,9.12,16.11,19.18l-10.43,46.45c-2.52,11.23-12.14,19.74-24.11,19.75l-55.57.05c-6.37,0-11.81-6.3-10.34-12.9l23.37-104.96,15.31.33c1.15.02,3.26,1.39,3.81,2.24.66,1.03.7,3.85.4,5.25l-6.2,29.26c4.29-2.67,8.1-4.8,12.6-4.78l35.07.13ZM844.61,163.16l7.5-35.04c.58-3.52-1.77-6.47-5.34-6.47l-39.27-.07-9.9,44.16c-.18.79-.12,2.68.06,3.43s2.28,1.52,3.33,1.52l34.6-.03c4.3,0,8.04-2.9,9.02-7.5Z"/>
      <path class="cls-6" d="M943.48,188.72h-51.9c-8.81,0-16.21-8.85-14.28-17.59l10.64-48.2c2.43-11.01,12.81-19.47,24.35-19.48l48.64-.06c4.87,0,10.04,3.15,12.51,6.15,3.33,4.04,4.44,9.88,3.24,15.08l-10.71,46.42c-2.24,9.71-12.22,17.68-22.49,17.68ZM939.2,170.7c5.26-1.1,7.22-4.94,8.21-9.44l7.27-33.06c.82-3.7-2.65-6.6-5.83-6.6l-32.33.07c-4.13,0-7.88,2.93-8.81,7.04l-7.96,35.46c-.68,3.02,1.89,6.44,4.95,6.45l34.49.07Z"/>
      <path class="cls-6" d="M560.32,183.6c-1.22,5.36-7.33,5.64-10.96,5.57-5.48-.1-9.42.31-14.02-3.21l21.58-94.06-42.54-.23,12.44-17.76c1.26-1.8,6.07-3.21,8.36-3.21h92.13s-9.9,15.74-9.9,15.74c-1.49,3.1-4.6,5.12-8.14,5.17l-28.01.34-20.92,91.65Z"/>
      <path class="cls-6" d="M705.77,104.73l-19.14,84.17-15.75.2c-1.78.02-3.86-2.73-4.13-4.67-3.34,2.03-8.16,4.55-12.59,4.53l-36.76-.18c-9.96-.05-16.9-9.39-14.68-19.36l14.71-65.95,13.96-.26c1.73-.03,4.93,1.73,6.85,3.18l-13.17,57.77c.19,1.55.5,3.64,1.02,4.56.62,1.1,3.54,1.91,5.01,1.91l38.58.04,15.05-67.13c6.83-.53,13.1-.74,21.04,1.18Z"/>
      <path class="cls-6" d="M745.7,121.6c-2.7,0-7.36,2.19-8.01,5.05l-14,62.34-21.7-.06,15.6-68.37c2.26-9.91,11.58-17.14,21.6-17.18l41.31-.14-4.32,13.01c-.85,2.55-3.97,5.33-6.82,5.34l-23.67.02Z"/>
      <g>
        <path class="cls-2" d="M1061.67,188.51l-83.08.21,11.56-17.55c1.01-1.53,5.04-2.76,6.95-2.76l59.62-.06c3.77,0,6.58-3.83,7.29-6.94l3.36-14.82c.75-3.31-1.47-7.02-5.35-7.05l-47.55-.28c-5.47-.03-11.02-3.14-13.88-6.27-3.86-4.23-5.33-10.28-4.12-15.87l5.26-24.24c2.53-11.65,12.92-21.77,25.73-21.81l77.37-.25-8.83,15.22c-1.07,1.84-4.12,5.68-6.71,5.68l-56.17-.02c-3.34,0-7.76,2.13-8.63,5.46l-3.74,14.39c-.33,1.28.2,4.41.99,5.44.9,1.17,3.74,2.61,5.46,2.62l48.79.37c10.52.08,18.42,10.09,16.17,19.98l-6.7,29.43c-2.3,10.07-12.24,19.09-23.79,19.11Z"/>
        <path class="cls-2" d="M1225.13,171.57l46.16-.13c2.49,0,4.67,2.99,3.98,5.15l-3.94,12.27-59.01-.31c-10.13-.05-17.29-9.75-15.26-19.23l9.54-44.43c2.41-11.21,11.28-21.15,23.64-21.12l44.75.1c9.58.02,17.01,9.17,15.07,18.1l-3.74,17.22c-1.93,8.9-10.63,15.69-20.16,15.7l-46.23.06-1.98,10.39c-.81,4.25,3.63,6.25,7.17,6.24ZM1263.24,140.66c6.45-3.61,7.92-19.44,3.23-19.56l-31.35-.8c-4.04-.1-8,2.94-8.77,6.72l-2.94,14.25,39.83-.62Z"/>
        <path class="cls-2" d="M1351.5,188.37l-63.75.36,9.39-14.91c1.63-2.59,7.73-1.56,10.63-1.57l38.57-.15c5.84-.02,8.94-18.01,4.17-18.09l-38.25-.62c-8.07-.13-14.6-7.47-13.3-15.14l2.31-13.6c1.81-10.7,9.9-20.86,21.98-20.9l57.25-.17-5.94,11.84c-1.94,3.88-4.97,5.28-9.4,5.27l-38.93-.13c-5.06-.02-8.91,12.83-4.71,17.05l37.38.53c4.04.06,9.06,2.35,11.32,4.69,3.14,3.25,4.47,8.82,3.48,13.23l-3.59,16.01c-1.76,7.84-9.04,16.26-18.61,16.32Z"/>
        <path class="cls-2" d="M1181.96,170.66c2.22.03,5.6,3.35,5.09,5.18l-3.61,12.92-27.02-.4c-9.91-.15-15.59-9.85-13.52-19.12l10.84-48.55-9.41-.21,4.6-16.8,8.85-.17,4.45-21.91,14.13-.19c1.94-.03,5.85,2.65,5.5,4.42l-3.51,17.6,24.16.18-4.12,13.74c-.44,1.47-3.3,3.5-4.9,3.49l-18.89-.13-9.38,42.22c-.33,1.47-.75,3.81-.37,4.87.44,1.23,3.11,2.68,4.42,2.7l12.71.16Z"/>
        <path class="cls-2" d="M1118.17,188.67l-16.73.11c-1.09,0-3.45-1.48-3.65-2.39s-.08-2.85.22-4.15l17.59-78.35,16.03.13c1.06,0,3.03,1.22,3.64,1.92.6.71.8,3.19.56,4.25l-17.67,78.48Z"/>
        <path class="cls-2" d="M1140.17,91.6l-21.98-.07,4.44-20.16,17.04-.14c.86,0,2.88,1.16,3.32,1.89.54.92.33,3.33.04,4.4l-2.86,14.08Z"/>
      </g>
    </g>
  </g>
  <polygon class="cls-1" points="201.09 214.51 208.66 197.43 67.5 205.97 201.09 214.51"/>
  <polygon class="cls-4" points="212.09 185.09 219.66 168.01 78.5 176.55 212.09 185.09"/>
  <polygon class="cls-3" points="224.42 155.67 232 138.59 90.83 147.13 224.42 155.67"/>
</svg>
